<?xml version="1.0" standalone="no"?>
<!DOCTYPE svg PUBLIC "-//W3C//DTD SVG 20010904//EN"
 "http://www.w3.org/TR/2001/REC-SVG-20010904/DTD/svg10.dtd">
<svg version="1.0" xmlns="http://www.w3.org/2000/svg"
 width="576.000000pt" height="576.000000pt" viewBox="0 0 576.000000 576.000000"
 preserveAspectRatio="xMidYMid meet">
<metadata>
Created by potrace 1.14, written by Peter Selinger 2001-2017
</metadata>
<g transform="translate(0.000000,576.000000) scale(0.100000,-0.100000)"
fill="#000000" stroke="none">
<path d="M2733 5495 c-149 -47 -233 -122 -330 -297 -31 -57 -59 -105 -62 -108
-4 -3 -14 -21 -23 -40 -10 -19 -31 -60 -49 -90 -124 -219 -169 -301 -169 -310
0 -5 -4 -10 -9 -10 -5 0 -11 -8 -14 -17 -4 -10 -21 -45 -40 -78 -37 -66 -70
-124 -129 -230 -21 -38 -43 -77 -48 -85 -6 -8 -24 -40 -40 -70 -75 -135 -87
-158 -114 -205 -16 -27 -50 -88 -76 -135 -26 -47 -56 -101 -67 -120 -11 -19
-32 -56 -46 -82 -15 -27 -39 -69 -54 -95 -26 -46 -45 -79 -113 -203 -36 -65
-76 -136 -115 -205 -24 -42 -101 -181 -189 -338 -11 -21 -26 -46 -31 -55 -6
-9 -33 -57 -60 -107 -28 -49 -55 -99 -62 -110 -7 -11 -15 -27 -20 -35 -4 -8
-19 -35 -33 -60 -15 -25 -46 -81 -70 -125 -24 -44 -52 -93 -61 -110 -10 -16
-31 -52 -46 -80 -31 -56 -40 -71 -102 -182 -24 -43 -57 -102 -73 -132 -17 -29
-43 -76 -59 -103 -16 -27 -29 -51 -29 -53 0 -2 -13 -26 -29 -53 -16 -27 -44
-76 -62 -108 -41 -74 -46 -83 -157 -282 -105 -185 -119 -215 -137 -292 -17
-69 -12 -211 8 -268 9 -23 17 -46 18 -50 13 -56 98 -171 161 -219 68 -52 129
-83 198 -99 85 -20 4892 -19 4967 1 236 64 397 283 389 527 -2 46 -6 93 -10
105 -3 13 -8 33 -11 45 -6 29 -29 78 -80 168 -23 41 -57 102 -75 135 -18 33
-44 78 -57 100 -13 22 -29 52 -36 68 -6 15 -15 27 -19 27 -4 0 -8 4 -8 10 0 5
-41 83 -92 172 -50 90 -102 182 -114 205 -12 23 -51 92 -87 155 -35 62 -78
138 -94 168 -17 30 -48 84 -68 120 -21 36 -50 88 -65 115 -15 28 -91 165 -170
305 -79 140 -154 275 -168 300 -14 25 -40 71 -58 103 -19 32 -34 59 -34 61 0
1 -40 74 -90 160 -49 87 -90 160 -90 161 0 2 -22 42 -50 90 -27 48 -50 91 -50
96 0 5 -4 9 -10 9 -5 0 -10 4 -10 9 0 5 -18 40 -39 78 -21 38 -52 93 -69 123
-16 30 -39 73 -52 95 -100 177 -266 474 -274 492 -6 13 -14 23 -18 23 -5 0 -8
4 -8 9 0 4 -19 41 -41 82 -23 41 -54 97 -69 124 -15 28 -43 78 -63 112 -21 34
-37 66 -37 72 0 6 -3 11 -7 11 -5 0 -17 20 -28 45 -11 25 -23 45 -27 45 -3 0
-10 10 -13 22 -4 11 -21 44 -37 72 -17 27 -46 80 -66 116 -73 134 -119 188
-215 251 -116 76 -279 97 -414 54z"/>
</g>
</svg>
