<svg width="64" height="64" viewBox="0 0 64 64" fill="none" xmlns="http://www.w3.org/2000/svg">
<rect width="64" height="64" rx="20" fill="url(#paint0_linear_3811_4709)"/>
<path fill-rule="evenodd" clip-rule="evenodd" d="M38.4004 17.6C38.4004 16.7163 39.1167 16 40.0004 16H43.2004C44.4734 16 45.6943 16.5057 46.5945 17.4059C47.4947 18.3061 48.0004 19.527 48.0004 20.8V24C48.0004 24.8837 47.284 25.6 46.4004 25.6C45.5167 25.6 44.8004 24.8837 44.8004 24V20.8C44.8004 20.3757 44.6318 19.9687 44.3318 19.6686C44.0317 19.3686 43.6247 19.2 43.2004 19.2H40.0004C39.1167 19.2 38.4004 18.4837 38.4004 17.6Z" fill="#1890FF"/>
<path fill-rule="evenodd" clip-rule="evenodd" d="M17.4059 17.4059C18.3061 16.5057 19.527 16 20.8 16H24C24.8837 16 25.6 16.7163 25.6 17.6C25.6 18.4837 24.8837 19.2 24 19.2H20.8C20.3757 19.2 19.9687 19.3686 19.6686 19.6686C19.3686 19.9687 19.2 20.3757 19.2 20.8V24C19.2 24.8837 18.4837 25.6 17.6 25.6C16.7163 25.6 16 24.8837 16 24V20.8C16 19.527 16.5057 18.3061 17.4059 17.4059Z" fill="#1890FF"/>
<path fill-rule="evenodd" clip-rule="evenodd" d="M17.6 38.4C18.4837 38.4 19.2 39.1164 19.2 40V43.2C19.2 43.6244 19.3686 44.0313 19.6686 44.3314C19.9687 44.6315 20.3757 44.8 20.8 44.8H24C24.8837 44.8 25.6 45.5164 25.6 46.4C25.6 47.2837 24.8837 48 24 48H20.8C19.527 48 18.3061 47.4943 17.4059 46.5941C16.5057 45.694 16 44.4731 16 43.2V40C16 39.1164 16.7163 38.4 17.6 38.4Z" fill="#1890FF"/>
<path fill-rule="evenodd" clip-rule="evenodd" d="M46.4004 38.4C47.284 38.4 48.0004 39.1164 48.0004 40V43.2C48.0004 44.4731 47.4947 45.694 46.5945 46.5941C45.6943 47.4943 44.4734 48 43.2004 48H40.0004C39.1167 48 38.4004 47.2837 38.4004 46.4C38.4004 45.5164 39.1167 44.8 40.0004 44.8H43.2004C43.6247 44.8 44.0317 44.6315 44.3318 44.3314C44.6318 44.0313 44.8004 43.6244 44.8004 43.2V40C44.8004 39.1164 45.5167 38.4 46.4004 38.4Z" fill="#1890FF"/>
<path fill-rule="evenodd" clip-rule="evenodd" d="M27.4741 22.6746C28.6744 21.4743 30.3022 20.8 31.9996 20.8C33.697 20.8 35.3249 21.4743 36.5251 22.6746C37.7253 23.8748 38.3996 25.5027 38.3996 27.2C38.3996 28.8974 37.7253 30.5253 36.5251 31.7255C35.3249 32.9258 33.697 33.6 31.9996 33.6C30.3022 33.6 28.6744 32.9258 27.4741 31.7255C26.2739 30.5253 25.5996 28.8974 25.5996 27.2C25.5996 25.5027 26.2739 23.8748 27.4741 22.6746ZM31.9996 24C31.1509 24 30.337 24.3372 29.7369 24.9373C29.1368 25.5374 28.7996 26.3514 28.7996 27.2C28.7996 28.0487 29.1368 28.8627 29.7369 29.4628C30.337 30.0629 31.1509 30.4 31.9996 30.4C32.8483 30.4 33.6622 30.0629 34.2624 29.4628C34.8625 28.8627 35.1996 28.0487 35.1996 27.2C35.1996 26.3514 34.8625 25.5374 34.2624 24.9373C33.6622 24.3372 32.8483 24 31.9996 24Z" fill="#1890FF"/>
<path fill-rule="evenodd" clip-rule="evenodd" d="M27.7193 36.2154C29.0475 35.5476 30.5135 35.1998 32.0001 35.1998C33.4866 35.1998 34.9526 35.5476 36.2808 36.2154C37.609 36.8832 38.7625 37.8524 39.6491 39.0457C40.1762 39.7549 40.0284 40.7572 39.3191 41.2842C38.6099 41.8113 37.6076 41.6635 37.0806 40.9543C36.4917 40.1617 35.7255 39.5179 34.8433 39.0744C33.9612 38.6308 32.9875 38.3998 32.0001 38.3998C31.0127 38.3998 30.0389 38.6308 29.1568 39.0744C28.2746 39.5179 27.5084 40.1617 26.9195 40.9543C26.3925 41.6635 25.3902 41.8113 24.681 41.2842C23.9717 40.7572 23.824 39.7549 24.351 39.0457C25.2376 37.8524 26.3912 36.8832 27.7193 36.2154Z" fill="#1890FF"/>
<defs>
<linearGradient id="paint0_linear_3811_4709" x1="0" y1="0" x2="64" y2="64" gradientUnits="userSpaceOnUse">
<stop stop-color="#212A33"/>
<stop offset="1" stop-color="#181F26"/>
</linearGradient>
</defs>
</svg>
