<?xml version="1.0" encoding="utf-8"?>
<!-- Generator: Adobe Illustrator 24.0.2, SVG Export Plug-In . SVG Version: 6.00 Build 0)  -->
<svg version="1.1" id="Layer_1" xmlns="http://www.w3.org/2000/svg" xmlns:xlink="http://www.w3.org/1999/xlink" x="0px" y="0px"
	 viewBox="0 0 120 40" style="enable-background:new 0 0 120 40;" xml:space="preserve">
<style type="text/css">
	.st0{fill:#FFFFFF;}
	.st1{fill:url(#SVGID_1_);}
	.st2{fill:#00CAA4;}
</style>
<path class="st0" d="M88,0h24c4.4,0,8,3.6,8,8v24c0,4.4-3.6,8-8,8H88c-4.4,0-8-3.6-8-8V8C80,3.6,83.6,0,88,0z"/>
<g id="OBJECTS">
	<g>
		
			<linearGradient id="SVGID_1_" gradientUnits="userSpaceOnUse" x1="80.851" y1="33.6383" x2="104.5766" y2="44.2523" gradientTransform="matrix(1 0 0 1 0 -14.11)">
			<stop  offset="0" style="stop-color:#00B990"/>
			<stop  offset="1" style="stop-color:#000A3B"/>
		</linearGradient>
		<path class="st1" d="M116.1,26.1c0,0-3,2.1-11.7,0c0,0-5.9-1.8-11.4-7.4s-11.3-1.9-11.3-1.9s3-0.2,4.5,0.4l2.2,0.8l2.9,5.3
			l6.5,12.8l-3.5-13.3l1.6,1.8l3.7,12.2l2.3-8.8l1.3,0.5l-2.1,7.6l3.6-6.9C104.6,29.3,111,30.6,116.1,26.1z"/>
		<path class="st2" d="M117,21.9c0,0,0.6,2.4-8.9,2.8h-3.5l3-9h4.7l-4,8.5C108.4,24.2,115,24.1,117,21.9z"/>
		<polygon class="st2" points="109.5,8.8 112.4,14.1 107.8,14.1 		"/>
		<path class="st2" d="M106,15.7l-2.5,8.7l-1.3-0.2c-0.4-0.1-0.8-0.2-1.1-0.5l-6.5-4.8l-1-3.3L106,15.7L106,15.7L106,15.7z"/>
		<polygon class="st2" points="83.2,14.1 87.7,13 90.4,8.8 92.8,17.1 88,14.3 		"/>
		<polygon class="st2" points="91.3,7.5 93,13.5 98.7,7.5 		"/>
		<polygon class="st2" points="105.2,14.1 99.8,8.8 94.2,14.3 		"/>
		<polygon class="st2" points="106.6,13.5 101,7.5 108.3,7.5 		"/>
	</g>
</g>
<g>
	<path class="st0" d="M31.5,16.4l2,11.3h-7.6c-3.1,0-5.6-2.5-5.6-5.6c0-3.1,2.5-5.7,5.6-5.7H31.5z M30.3,25l-1.1-5.9l-3.4,0
		c-1.6,0-3,1.3-3,3c0,1.6,1.3,3,2.9,3H30.3z M23,12.9c0-0.8,0.7-1.5,1.5-1.5c0.6,0,1.1,0.3,1.3,0.8c0.2-0.5,0.7-0.8,1.3-0.8
		c0.8,0,1.5,0.6,1.5,1.5c0,0.8-0.6,1.5-1.5,1.5c-0.6,0-1.1-0.3-1.3-0.8c-0.2,0.5-0.7,0.8-1.3,0.8C23.6,14.4,23,13.7,23,12.9z"/>
	<path class="st0" d="M44.2,16.4l2,11.3H34L32,25h3l-1.2-6.8l2.4-1.7l1.5,8.6H39l-1.2-6.8l2.4-1.8l1.5,8.6H43l-1.2-6.8L44.2,16.4z"
		/>
	<path class="st0" d="M47.3,11.2l2.9,16.5h-2.7l-2.9-16.5H47.3z"/>
	<path class="st0" d="M66.7,27.7l-2.1,0v0l-14,0L48.8,25h4.3c-0.9-0.7-1.6-1.9-1.6-3.2c0-3.3,2.6-5.9,5.9-5.9c3.3,0,5.3,1.9,5.9,4.9
		l0.8,4.3h2.1L66.7,27.7z M61.4,25l-0.7-3.8c-0.2-1.4-1.4-2.7-3.2-2.7c-1.8,0-3.3,1.5-3.3,3.3c0,1.8,1.5,3.3,3.3,3.3L61.4,25z"/>
	<path class="st0" d="M66.3,11.2l2.9,16.5h-2.7v0h-1L63.7,25H66l-2.5-13.8H66.3z"/>
	<path class="st0" d="M70.4,11.2l2.9,16.5h-2.7l-2.9-16.5H70.4z"/>
</g>
</svg>
