<?xml version="1.0" encoding="utf-8"?>
<!-- Generator: Adobe Illustrator 24.0.2, SVG Export Plug-In . SVG Version: 6.00 Build 0)  -->
<svg version="1.1" id="Layer_1" xmlns="http://www.w3.org/2000/svg" xmlns:xlink="http://www.w3.org/1999/xlink" x="0px" y="0px"
	 viewBox="0 0 120 40" style="enable-background:new 0 0 120 40;" xml:space="preserve">
<style type="text/css">
	.st0{fill:#FFFFFF;}
	.st1{fill:url(#SVGID_1_);}
	.st2{fill:#00CAA4;}
	.st3{display:none;}
	.st4{display:inline;}
</style>
<path class="st0" d="M90.8,1.7h21.2c3.9,0,7.1,3.3,7.1,7.3v22c0,4-3.2,7.3-7.1,7.3H90.8c-3.9,0-7.1-3.3-7.1-7.3V9
	C83.7,5,86.9,1.7,90.8,1.7z"/>
<g id="OBJECTS">
	<g>
		
			<linearGradient id="SVGID_1_" gradientUnits="userSpaceOnUse" x1="82.8898" y1="471.5516" x2="106.6154" y2="482.1656" gradientTransform="matrix(1 0 0 1 0 -452.11)">
			<stop  offset="0" style="stop-color:#00B990"/>
			<stop  offset="1" style="stop-color:#000A3B"/>
		</linearGradient>
		<path class="st1" d="M118.1,26.1c0,0-3,2.1-11.7,0c0,0-5.9-1.8-11.4-7.4s-11.3-1.9-11.3-1.9s3-0.2,4.5,0.4l2.2,0.8l2.9,5.3
			l6.5,12.8l-3.5-13.3l1.6,1.8l3.7,12.2l2.3-8.8l1.3,0.5l-2.1,7.6l3.6-6.9C106.6,29.3,113,30.6,118.1,26.1z"/>
		<path class="st2" d="M119,21.9c0,0,0.6,2.4-8.9,2.8h-3.5l3-9h4.7l-4,8.5C110.4,24.2,117,24.1,119,21.9z"/>
		<polygon class="st2" points="111.5,8.8 114.4,14.1 109.8,14.1 		"/>
		<path class="st2" d="M108,15.7l-2.5,8.7l-1.3-0.2c-0.4-0.1-0.8-0.2-1.1-0.5l-6.5-4.8l-1-3.3L108,15.7L108,15.7L108,15.7z"/>
		<polygon class="st2" points="85.2,14.1 89.7,13 92.4,8.8 94.8,17.1 90,14.3 		"/>
		<polygon class="st2" points="93.3,7.5 95,13.5 100.7,7.5 		"/>
		<polygon class="st2" points="107.2,14.1 101.8,8.8 96.2,14.3 		"/>
		<polygon class="st2" points="108.6,13.5 103,7.5 110.3,7.5 		"/>
	</g>
</g>
<g class="st3">
	<path class="st4" d="M31.5,16.4l2,11.3h-7.6c-3.1,0-5.6-2.5-5.6-5.6s2.5-5.7,5.6-5.7C25.9,16.4,31.5,16.4,31.5,16.4z M30.3,25
		l-1.1-5.9h-3.4c-1.6,0-3,1.3-3,3c0,1.6,1.3,3,2.9,3h4.6V25z M23,12.9c0-0.8,0.7-1.5,1.5-1.5c0.6,0,1.1,0.3,1.3,0.8
		c0.2-0.5,0.7-0.8,1.3-0.8c0.8,0,1.5,0.6,1.5,1.5c0,0.8-0.6,1.5-1.5,1.5c-0.6,0-1.1-0.3-1.3-0.8c-0.2,0.5-0.7,0.8-1.3,0.8
		C23.6,14.4,23,13.7,23,12.9z"/>
	<path class="st4" d="M44.2,16.4l2,11.3H34L32,25h3l-1.2-6.8l2.4-1.7l1.5,8.6H39l-1.2-6.8l2.4-1.8l1.5,8.6H43l-1.2-6.8L44.2,16.4z"
		/>
	<path class="st4" d="M47.3,11.2l2.9,16.5h-2.7l-2.9-16.5C44.6,11.2,47.3,11.2,47.3,11.2z"/>
	<path class="st4" d="M66.7,27.7h-2.1l0,0h-14L48.8,25h4.3c-0.9-0.7-1.6-1.9-1.6-3.2c0-3.3,2.6-5.9,5.9-5.9c3.3,0,5.3,1.9,5.9,4.9
		l0.8,4.3h2.1L66.7,27.7z M61.4,25l-0.7-3.8c-0.2-1.4-1.4-2.7-3.2-2.7s-3.3,1.5-3.3,3.3s1.5,3.3,3.3,3.3L61.4,25z"/>
	<path class="st4" d="M66.3,11.2l2.9,16.5h-2.7l0,0h-1L63.7,25H66l-2.5-13.8H66.3z"/>
	<path class="st4" d="M70.4,11.2l2.9,16.5h-2.7l-2.9-16.5C67.7,11.2,70.4,11.2,70.4,11.2z"/>
</g>
<g>
	<path class="st0" d="M18.8,16.9l1.5,8.8h-7.5c-1,1.9-3,3.2-5.3,3.2c-3.3,0-6-2.7-6-6s2.7-6,6-6c0.1,0,0.3,0,0.4,0l0.4,2.2
		C8.1,19,7.8,19,7.5,19c-2.1,0-3.9,1.7-3.9,3.9c0,2.1,1.7,3.9,3.9,3.9c1.9,0,3.5-1.3,3.8-3.1l-0.1-0.1h0.1c0-0.2,0.1-0.4,0.1-0.6
		s0-0.5-0.1-0.7l-0.7-4l1.8-1.4l0.9,5c0.1,0.3,0.1,0.7,0.1,1c0,0.2,0,0.4,0,0.6h1.3l-0.9-5.3l1.9-1.4l1.2,6.7h1L17,18.2L18.8,16.9z"
		/>
	<path class="st0" d="M21.7,12.9L24,25.7h-2.1l-2.3-12.8C19.6,12.9,21.7,12.9,21.7,12.9z"/>
	<path class="st0" d="M36.8,25.7h-1.7l0,0H24.2l-1.4-2.1h3.3c-0.7-0.5-1.2-1.5-1.2-2.5c0-2.5,2.1-4.6,4.6-4.6c2.6,0,4.1,1.5,4.6,3.8
		l0.6,3.3h1.7L36.8,25.7z M32.6,23.7l-0.5-3c-0.2-1.1-1.1-2.1-2.5-2.1c-1.4,0-2.6,1.1-2.6,2.6c0,1.4,1.1,2.6,2.6,2.6L32.6,23.7z"/>
	<path class="st0" d="M36.4,12.9l2.3,12.8h-2.1l0,0h-0.8l-1.4-2.1h1.8l-1.9-10.7C34.3,12.9,36.4,12.9,36.4,12.9z"/>
	<path class="st0" d="M39.6,12.9l2.3,12.8h-2.1l-2.3-12.8C37.5,12.9,39.6,12.9,39.6,12.9z"/>
	<path class="st0" d="M47.1,16.9h3.7c2.2,0,4,1.6,4.3,3.6l0.9,5.1h-9.2l-0.4-2.1h7.1L53,20.9c-0.2-1.1-1.1-1.9-2.3-1.9h-3.3
		L47.1,16.9z"/>
	<path class="st0" d="M56.9,12.9l2.3,12.8H57l-2.3-12.8C54.7,12.9,56.9,12.9,56.9,12.9z"/>
	<path class="st0" d="M72.8,25.7h-4.7l-0.3-0.5c-0.6,0.3-1.3,0.5-2.1,0.5h-6.2l-1.4-2.1h7.6c1.3,0,2.3-1,2.3-2.3S67,19,65.7,19h-6.5
		l-0.4-2.1h6.8c2.4,0,4.4,2,4.4,4.4c0,0.8-0.2,1.6-0.6,2.3h3L72.8,25.7z"/>
	<path class="st0" d="M72.8,16.9l1.6,8.8h-2.1l0,0h-1.1l-1.4-2.1h2.1l-1.2-6.7C70.7,16.9,72.8,16.9,72.8,16.9z M70.7,12.6
		c0.3-0.5,1-0.7,1.6-0.4c0.5,0.3,0.7,1,0.4,1.5c-0.1,0.1-0.2,0.2-0.3,0.3c0.1,0,0.2,0.1,0.2,0.1c0.5,0.3,0.7,1,0.4,1.5
		c-0.3,0.5-1,0.7-1.6,0.4c-0.5-0.3-0.7-1-0.4-1.6c0.1-0.1,0.2-0.2,0.3-0.3c-0.1,0-0.2-0.1-0.2-0.1C70.5,13.9,70.3,13.2,70.7,12.6z"
		/>
	<path class="st0" d="M75.2,12.9l2.3,12.8h-2.1l-2.3-12.8C73.1,12.9,75.2,12.9,75.2,12.9z"/>
</g>
</svg>
