<svg width="300" height="149" viewBox="0 0 300 149" fill="none" xmlns="http://www.w3.org/2000/svg">
<path d="M62.5171 227.966C121.857 228.072 158.717 185.565 158.824 113.335C158.93 41.5312 121.857 0.835219 62.5171 0.835219C3.07103 0.835219 -33.5767 41.3182 -33.7898 113.335C-34.0028 185.246 3.07103 227.859 62.5171 227.966ZM62.5171 179.812C42.0625 179.812 27.3608 159.251 27.5739 113.335C27.7869 68.4844 42.0625 48.5625 62.5171 48.5625C82.9716 48.5625 97.3537 68.4844 97.4602 113.335C97.5668 159.251 82.9716 179.812 62.5171 179.812ZM299.589 3.81818H245.044L191.351 36.6307V86.9148L239.078 58.3636H240.357V222H299.589V3.81818Z" fill="url(#paint0_linear)"/>
<defs>
<linearGradient id="paint0_linear" x1="141.5" y1="-37" x2="141.5" y2="263" gradientUnits="userSpaceOnUse">
<stop stop-color="#313D49"/>
<stop offset="1" stop-color="#313D49" stop-opacity="0"/>
</linearGradient>
</defs>
</svg>
