<svg width="361" height="149" viewBox="0 0 361 149" fill="none" xmlns="http://www.w3.org/2000/svg">
<path d="M62.5171 227.966C121.857 228.072 158.717 185.565 158.824 113.335C158.93 41.5312 121.857 0.835219 62.5171 0.835219C3.07103 0.835219 -33.5767 41.3182 -33.7898 113.335C-34.0028 185.246 3.07103 227.859 62.5171 227.966ZM62.5171 179.812C42.0625 179.812 27.3608 159.251 27.5739 113.335C27.7869 68.4844 42.0625 48.5625 62.5171 48.5625C82.9716 48.5625 97.3537 68.4844 97.4602 113.335C97.5668 159.251 82.9716 179.812 62.5171 179.812ZM192.629 222H360.101V174.699H274.874V173.42L295.328 156.375C345.08 114.933 357.757 93.4133 357.757 68.1648C357.757 27.4688 324.412 0.835219 272.104 0.835219C221.287 0.835219 188.261 29.0668 188.368 74.9829H244.618C244.511 56.6591 255.697 46.4318 272.104 46.4318C288.403 46.4318 300.016 56.5526 300.016 73.2784C300.016 88.7258 290.108 98.7401 274.021 112.057L192.629 179.386V222Z" fill="url(#paint0_linear)"/>
<defs>
<linearGradient id="paint0_linear" x1="169.5" y1="-37" x2="169.5" y2="263" gradientUnits="userSpaceOnUse">
<stop stop-color="#313D49"/>
<stop offset="1" stop-color="#313D49" stop-opacity="0"/>
</linearGradient>
</defs>
</svg>
