<svg width="320" height="149" viewBox="0 0 320 149" fill="none" xmlns="http://www.w3.org/2000/svg">
<path d="M13.0424 227.966C72.3819 228.072 109.243 185.565 109.349 113.335C109.456 41.5312 72.3819 0.835219 13.0424 0.835219C-46.4036 0.835219 -83.0513 41.3182 -83.2644 113.335C-83.4775 185.246 -46.4036 227.859 13.0424 227.966ZM13.0424 179.812C-7.41211 179.812 -22.1138 159.251 -21.9007 113.335C-21.6877 68.4844 -7.41211 48.5625 13.0424 48.5625C33.497 48.5625 47.8791 68.4844 47.9856 113.335C48.0922 159.251 33.497 179.812 13.0424 179.812ZM228.382 224.983C281.756 224.983 319.362 197.817 319.149 159.358C319.362 132.618 301.464 113.761 266.308 109.926V108.222C292.302 105.452 311.265 88.7258 311.052 64.3295C311.265 27.5753 277.175 0.835219 228.808 0.835219C179.376 0.835219 144.22 29.0668 144.007 69.017H200.683C200.896 55.8068 212.508 46.4318 228.808 46.4318C243.723 46.4318 254.163 55.4872 253.95 68.1648C254.163 81.375 241.805 90.75 224.121 90.75H201.961V131.659H224.121C243.297 131.659 256.72 141.034 256.507 154.244C256.72 167.774 245.214 177.256 228.808 177.256C211.763 177.256 199.618 168.2 199.405 155.523H139.746C139.959 196.219 176.713 224.983 228.382 224.983Z" fill="url(#paint0_linear)"/>
<defs>
<linearGradient id="paint0_linear" x1="347.92" y1="-37" x2="347.92" y2="263" gradientUnits="userSpaceOnUse">
<stop stop-color="#313D49"/>
<stop offset="1" stop-color="#313D49" stop-opacity="0"/>
</linearGradient>
</defs>
</svg>
