<svg width="24" height="24" viewBox="0 0 24 24" fill="none" xmlns="http://www.w3.org/2000/svg">
    <path d="M8.7181 21C8.32156 21.0007 7.92976 20.9123 7.57068 20.7412C7.2116 20.5702 6.8941 20.3206 6.64085 20.0104L4.26954 16.9456C4.16958 16.8224 4.09484 16.6801 4.04971 16.5271C4.00458 16.3741 3.98997 16.2135 4.00674 16.0547C4.02351 15.8959 4.07131 15.7421 4.14736 15.6023C4.2234 15.4626 4.32614 15.3397 4.44955 15.2408C4.57296 15.142 4.71455 15.0692 4.866 15.0268C5.01746 14.9843 5.17573 14.9731 5.33151 14.9937C5.4873 15.0143 5.63747 15.0663 5.77321 15.1468C5.90894 15.2272 6.0275 15.3344 6.12193 15.462L8.48066 18.4996C8.50856 18.5384 8.54668 18.5685 8.59063 18.5863C8.63457 18.6041 8.68257 18.609 8.72911 18.6003C8.7805 18.6003 8.83123 18.5886 8.87752 18.5659C8.92381 18.5432 8.96446 18.5101 8.99643 18.4692L17.6404 7.46201C17.7363 7.33686 17.8557 7.23231 17.9917 7.15442C18.1276 7.07653 18.2774 7.02685 18.4324 7.00826C18.5874 6.98967 18.7445 7.00253 18.8946 7.04611C19.0446 7.08969 19.1847 7.16311 19.3066 7.26212C19.4286 7.36114 19.53 7.48377 19.6049 7.62292C19.6799 7.76207 19.727 7.91496 19.7434 8.07275C19.7599 8.23053 19.7453 8.39006 19.7007 8.54209C19.6561 8.69412 19.5822 8.83563 19.4833 8.95842L10.8237 19.9768C10.572 20.2945 10.2538 20.5512 9.89232 20.7282C9.53082 20.9052 9.13506 20.998 8.73383 21H8.7181Z" fill="#1890FF"/>
</svg>
