<svg width="16" height="16" viewBox="0 0 16 16" fill="none" xmlns="http://www.w3.org/2000/svg">
    <path d="M13.8055 7.53848L9.78634 3.52549C9.52971 3.26939 9.11579 3.26939 8.85916 3.52549C8.60253 3.7816 8.60253 4.19467 8.85916 4.44871L12.4168 7.99905L8.85916 11.5515C8.60253 11.8076 8.60253 12.2206 8.85916 12.4747C9.11579 12.7308 9.52971 12.7308 9.78634 12.4747L13.8076 8.46169C13.9359 8.33364 14 8.16634 14 7.99905C13.998 7.83382 13.9338 7.66653 13.8055 7.53848Z" fill="white"/>
    <path d="M12.6672 8.10943C12.6672 7.74788 12.3741 7.45475 12.0126 7.45464L2.6635 7.4519C2.30094 7.45153 2.00886 7.74362 2.01069 8.10471C2.01106 8.46727 2.30374 8.75995 2.6663 8.76033L12.0121 8.76422C12.3738 8.76437 12.6672 8.47117 12.6672 8.10943Z" fill="white"/>
</svg>
